<svg width="107" height="107" viewBox="0 0 107 107" fill="none" xmlns="http://www.w3.org/2000/svg">
<path d="M53.5001 0C23.9412 0 0 24.5468 0 54.8532C0 79.1258 15.3144 99.6272 36.5806 106.895C39.2556 107.375 40.2587 105.73 40.2587 104.29C40.2587 102.987 40.1918 98.6672 40.1918 94.0733C26.75 96.6102 23.2725 90.7135 22.2025 87.628C21.6006 86.051 18.9925 81.1828 16.7187 79.88C14.8462 78.8515 12.1712 76.3145 16.6519 76.246C20.865 76.1774 23.8744 80.2228 24.8775 81.8684C29.6925 90.165 37.3831 87.8337 40.4593 86.3938C40.9275 82.8284 42.3318 80.4285 43.8701 79.0572C31.9662 77.6859 19.5275 72.9548 19.5275 51.9734C19.5275 46.0081 21.6006 41.0714 25.0112 37.2316C24.4762 35.8603 22.6037 30.2378 25.5462 22.6955C25.5462 22.6955 30.0268 21.2556 40.2587 28.318C44.5388 27.0838 49.0863 26.4667 53.6338 26.4667C58.1813 26.4667 62.7288 27.0838 67.0088 28.318C77.2407 21.1871 81.7213 22.6955 81.7213 22.6955C84.6638 30.2378 82.7913 35.8603 82.2563 37.2316C85.6669 41.0714 87.74 45.9396 87.74 51.9734C87.74 73.0234 75.2344 77.6859 63.3307 79.0572C65.2701 80.7714 66.9419 84.0626 66.9419 89.2051C66.9419 96.5417 66.8751 102.438 66.8751 104.29C66.8751 105.73 67.8782 107.444 70.5532 106.895C92.3303 99.3573 106.994 78.4198 107 54.8532C107 24.5468 83.0588 0 53.5001 0Z" fill="white"/>
</svg>
